# xmcd CD database file
#
# Track frame offsets:
#	225
#	17228
#	28932
#	49331
#	66553
#	84657
#	100615
#	120653
#	153722
#	177191
#	191954
#	203555
#	222255
#	238309
#	258007
#	271971
#	288464
#	308593
#
# Disc length: 4281 seconds
#
# Revision: 0
# Processed by: cddbd v1.5.2PL0 Copyright (c) Steve Scherf et al.
# Submitted via: CDex 1.51
#
DISCID=0e10b612
DTITLE=Various Artist - Blues Note Vol 2 - Starfisch Music
DYEAR=1997
DGENRE=Blues
TTITLE0=Harpface and The heat - She gives me shakes
TTITLE1=No Mercy - Take a train
TTITLE2=The Crawl - Woke up this morning
TTITLE3=Old Age - No place to hide
TTITLE4=Voodoo Child - 4'o clock jump
TTITLE5=Blues Frlames - Toads advice
TTITLE6=Final Affair - Man of the sixties
TTITLE7=Pigs in Space - Believing in mercy
TTITLE8=Ten Beers Faster - A good relationship
TTITLE9=Harpface and The heat - No love in your eyes
TTITLE10=No Mercy - Evil one
TTITLE11=The Crawl - Looking for true love
TTITLE12=Old Age - Hanging around
TTITLE13=Voodoo Chile - Hip Hopping the blues
TTITLE14=Blues Flames - Triple treat
TTITLE15=Final Affair - On the road
TTITLE16=Pigs in Space - My baby
TTITLE17=Ten Beers Faster - Miss Marple
EXTD=YEAR: 1997
EXTT0=
EXTT1=
EXTT2=
EXTT3=
EXTT4=
EXTT5=
EXTT6=
EXTT7=
EXTT8=
EXTT9=
EXTT10=
EXTT11=
EXTT12=
EXTT13=
EXTT14=
EXTT15=
EXTT16=
EXTT17=
PLAYORDER=
